<svg xmlns="http://www.w3.org/2000/svg" version="1.1" viewBox="-5.0 -10.0 110.0 115.0">
 <path d="m84.375 18.75c0-6.8945-5.6055-12.5-12.5-12.5s-12.5 5.6055-12.5 12.5c0 5.8047 3.9961 10.66 9.375 12.055v6.6953c0 8.6172-7.0078 15.625-15.625 15.625h-12.5c-3.5312 0-6.7578 1.2227-9.375 3.207v-25.527c5.3789-1.3984 9.375-6.25 9.375-12.055 0-6.8945-5.6055-12.5-12.5-12.5s-12.5 5.6055-12.5 12.5c0 5.8047 3.9961 10.66 9.375 12.055v38.387c-5.3789 1.3984-9.375 6.25-9.375 12.055 0 6.8945 5.6055 12.5 12.5 12.5s12.5-5.6055 12.5-12.5c0-5.8047-3.9961-10.66-9.375-12.055v-0.44531c0-5.168 4.207-9.375 9.375-9.375h12.5c12.059 0 21.875-9.8125 21.875-21.875v-6.6953c5.3789-1.3984 9.375-6.25 9.375-12.055zm-62.5 0c0-3.4453 2.8047-6.25 6.25-6.25s6.25 2.8047 6.25 6.25-2.8047 6.25-6.25 6.25-6.25-2.8047-6.25-6.25zm12.5 62.5c0 3.4453-2.8047 6.25-6.25 6.25s-6.25-2.8047-6.25-6.25 2.8047-6.25 6.25-6.25 6.25 2.8047 6.25 6.25zm37.5-56.25c-3.4453 0-6.25-2.8047-6.25-6.25s2.8047-6.25 6.25-6.25 6.25 2.8047 6.25 6.25-2.8047 6.25-6.25 6.25z"/>
</svg>